<?xml version="1.0" encoding="UTF-8"?>
<svg id="Layer_1" data-name="Layer 1" xmlns="http://www.w3.org/2000/svg" viewBox="0 0 510.98 195.95">
  <defs>
    <style>
      .cls-1 {
        fill: #414141;
      }

      .cls-1, .cls-2, .cls-3, .cls-4, .cls-5, .cls-6, .cls-7, .cls-8, .cls-9, .cls-10, .cls-11, .cls-12, .cls-13, .cls-14, .cls-15, .cls-16, .cls-17 {
        stroke-width: 0px;
      }

      .cls-18 {
        font-family: MS-Gothic, 'MS Gothic';
        font-size: 60px;
      }

      .cls-18, .cls-10 {
        fill: #fff;
      }

      .cls-2 {
        fill: #5e5649;
      }

      .cls-3 {
        fill: #fef5e5;
      }

      .cls-4 {
        fill: #f0e6d0;
      }

      .cls-5 {
        fill: #5b5448;
      }

      .cls-6 {
        fill: #30281f;
      }

      .cls-7 {
        fill: #403f3f;
      }

      .cls-8 {
        fill: #65bfe5;
      }

      .cls-9 {
        fill: #e8e8e7;
      }

      .cls-11 {
        fill: #414040;
      }

      .cls-12 {
        fill: #59aace;
      }

      .cls-13 {
        fill: #21100b;
      }

      .cls-14 {
        fill: #5d564b;
      }

      .cls-15 {
        fill: #453e32;
      }

      .cls-16 {
        fill: #433b2f;
      }

      .cls-17 {
        fill: #453d30;
      }
    </style>
  </defs>
  <g>
    <path class="cls-11" d="m201.69,43.81c29.72-.03,59.44-.09,89.16-.09,71.4-.01,142.79,0,214.19-.02,1.98,0,3.96-.18,5.94-.28v109.39c-1.72.92-3.59.46-5.38.46-99.33.03-198.67.02-298,.02-7.06,0-7.61-.83-4-7.12,7.31-12.74,11.21-26.47,12.48-41,1.63-19.68-2.96-37.94-12.62-55.07-1.08-1.91-3.05-3.68-1.76-6.29Z"/>
    <path class="cls-12" d="m217.37,103.44c-.42,17.62-6.38,33.48-15.78,48.32,1.56,1.26,3.08.83,4.46.83,100.14.02,200.28.02,300.42,0,1.48,0,2.95-.24,4.43-.37v.99c-101.42,0-202.85.04-304.27-.05-4.15,0-6.82,1.01-9.55,4.48-17.59,22.35-40.64,35.01-69.18,37.42-8,1.57-14.37-.11-20.37-6.52-13.58-14.51-28.01-28.23-42.1-42.27-.47-.47-.98-.9-1.4-1.41-1.61-1.98-5-3.58-3.79-6.36,1.06-2.44,4.46-1.51,6.87-1.51,35.19-.04,70.39-.02,105.58-.05,2.28,0,4.67.5,6.79-.82,2.36-2.1,2.22-4.81,1.3-7.31-1.04-2.83-3.88-1.86-6.07-2.07-2.26-.22-4.69.34-6.58-1.53-.32-.51-.54-1.05-.68-1.63-.55-21.64-.6-43.27,0-64.89,1.77-4.44,3.99-2.08,5.9-.23,12.24,11.87,24.29,23.94,36.32,36.02,2.78,2.79,6.15,5.12,7.7,8.97Z"/>
    <path class="cls-8" d="m217.37,103.44c-12.27-12.12-24.41-24.39-36.91-36.27-3.76-3.57-6.68-8.18-11.65-10.44-1.57-.11-2.71-1.14-4.01-1.83-2.39-1.43-5.04-1.56-7.71-1.56-24.91-.02-49.82-.05-74.73.01-8.37.02-9.85,1.55-9.87,9.9-.05,18.21,0,36.41-.04,54.62,0,2.61.38,5.33-1.27,7.7-2.17,1.61-4.73,1.27-7.19,1.36-2.86.1-5.29.45-5.32,4.24-.03,3.99,2.48,4.53,5.58,4.55,1.66.01,3.31.02,4.97.02,34.3,0,68.61-.02,102.91.04,2.89,0,6.03-.76,8.49,1.67-1.73,1.49-3.82.8-5.74.8-36.17.04-72.34.03-108.5.03h-5.43c-.49,1.89,1.01,2.48,1.86,3.33,16.86,16.87,33.8,33.67,50.62,50.57,2.04,2.05,4.13,3.04,7.01,2.83,2.47-.18,4.97.02,7.46.05-11.12,2.12-21.99.12-32.68-2.55-23-5.75-41.26-18.64-55.3-37.59-.58-.78-1.36-1.41-2.05-2.11-5.26-4.91-7.89-11.51-10.31-17.89-11.36-29.99-9.68-59.21,6.45-87.27,1-1.73,2.04-3.41,3.83-4.47,7.83-9.62,15.91-19,26.37-25.96C83.12,4.64,104.01-1.52,126.66.32c29.56,2.4,53.57,15.65,71.76,39.15,1,1.3,2.13,2.5,3.19,3.75,2.45,4.83,5.05,9.58,7.32,14.49,6.72,14.51,9.64,29.75,8.43,45.73Z"/>
    <path class="cls-11" d="m37.83,43.18c-4.65,8.9-9.71,17.62-12.33,27.43-7.33,27.36-4.26,53.34,10.28,77.84.82,1.38,2.17,2.54,2.08,4.36-11.46.04-22.92.01-34.38.16-2.5.03-3.48-.55-3.47-3.27C.1,115.26.11,80.82,0,46.39c-.01-3.25,1.52-3.32,3.94-3.3,11.29.09,22.59.07,33.88.09Z"/>
    <path class="cls-3" d="m180.61,137.44c-38.86-.04-77.72-.08-116.57-.12-6.72,0-9.01-3.2-6.99-9.64.63-2.01,2.09-2.31,3.86-2.33,3.32-.03,6.64-.11,9.96-.17.68-.48,1.38-1.01,2.22-1.02,11.36-.09,22.73-.82,34.07.39,2.36,1.15,1.9,5.17,5.37,5.22,5.27.08,10.57.67,15.79-.36,2.38-.47,1.96-3.72,3.98-4.78,11.37-1.34,22.76-.56,34.14-.44.84,0,1.56.51,2.22,1.01,2.28.05,4.58-.02,6.84.18,2.3.21,5.74-1.24,6.52,1.68.89,3.34,2.09,7.35-1.41,10.37Z"/>
    <path class="cls-2" d="m107.82,125.47c-12.32-.09-24.64-.18-36.96-.27,0-21.69-.03-43.37-.02-65.06,0-6.06,1.81-7.94,8.07-7.95,27.24-.05,54.48-.03,81.71,0,2.28,0,4.74-.23,6.14,2.27.56,5.68-.85,6.95-5.85,5.3-1.8-.42-3.63-.44-5.45-.44-23.41,0-46.83-.02-70.24.01-6.45,0-6.73.3-6.74,6.72-.03,15.39-.01,30.79,0,46.18,0,1.82-.05,3.65.66,5.37.33,1.8,5.28,2.72,1.13,5.28,27.69-.02,55.41-.04,83.13.03,1.82,0,3.69.03,5.14,1.44.12.28.16.57.13.87-12.29.1-24.58.2-36.88.3-7.99,2.27-15.98,2.33-23.96-.05Z"/>
    <path class="cls-17" d="m162.79,58.75c.75.16,1.36,2.49,2.28.16.58-1.48,1.13-2.97,1.69-4.46.68.76,1.37,1.52,2.05,2.28-.09,22.54-.19,45.07-.28,67.61h-92.8c1.11-2.44,4.01-1.55,5.25-3.36-1.03-1.32-3.33.25-4.05-1.7,2.26-1.74,4.79-1.27,7.31-.89,1.76.55,3.58.61,5.41.61,21.75,0,43.5,0,65.25-.01,1.95,0,4.05.39,5.48-1.53,1.06-2.2.73-4.54.75-6.83.09-15.5-.14-31.01.14-46.51-.05-1.95-.09-3.89,1.53-5.36Z"/>
    <path class="cls-7" d="m311.65,98.05c0,5.29-.02,10.58,0,15.87.01,2.6-.6,4.58-3.74,4.68-3.34.11-4.38-1.95-4.39-4.72-.06-10.58-.08-21.16.02-31.73.03-2.68,1.04-4.88,4.42-4.7,3.11.17,3.73,2.14,3.7,4.74-.04,5.29-.01,10.58-.01,15.87Z"/>
    <path class="cls-1" d="m358.57,79.55c2.77,3.83,1.66,8.04,1.11,12.15-.24,1.81-1.57,2.77-3.49,2.69-2.57-.16-3.76-1.35-3.46-4.06.21-1.95.04-3.94.04-5.91q.01-5.61,5.79-4.87Z"/>
    <path class="cls-4" d="m107.82,125.47c7.99-.34,15.97-.43,23.96.05.65,4.53-1.24,6.27-5.84,5.89-4.09-.33-8.25-.33-12.33,0-4.65.38-6.44-1.46-5.78-5.94Z"/>
    <path class="cls-10" d="m83.93,119.55c-2.33-.09-4.66-.18-7-.27-.01-19.03,0-38.06-.07-57.09,0-2.53-.12-4.28,3.5-4.26,26.56.16,53.12.09,79.68.1.96,0,2.02-.21,2.75.72-.09,1.66-.18,3.32-.27,4.97-.89,3.88-3.39,6.76-6.15,9.37-3.23,3.04-5.83,6.73-9.58,9.24-.72.16-1.43.13-2.14-.05-7.08-3.22-13.94-6.87-20.92-10.31-1.96-.96-3.89-1.95-6.12-.85-8.58,4.23-17.12,8.54-26.13,13.03,4.45,4.55,11.05,4.73,14.64,9.43-.76,3.02-1.8,6.02-.42,9.13.94,1.86,3.05,2.98,3.33,5.25-1.25,2.83-4.03,3.73-6.49,4.95-5.14,2.53-10.1,5.48-15.75,6.85-.97.13-1.94.27-2.87-.21Z"/>
    <path class="cls-9" d="m146.69,81.63c5.12-6.11,11.49-11.12,15.83-17.9.05,18.51.1,37.03.14,55.54-.97.93-2.19.6-3.32.6-23.07.02-46.14.02-69.21,0-1.12,0-2.35.36-3.28-.66,7.29-3.93,15.29-6.52,22-11.53.19-.15.39-.29.58-.44,5.72-.07,11.37,1.86,17.19,0,6.05-1.93,7.18-3.3,6.45-10.14-5.22,1.3-9.23,5.93-15.06,5.41-2.62-.56-4.91-1.92-7.22-3.17-2.77-1.5-4.98-2.33-4.98,2.22,0,.81-.39,1.59-1.26,1.95-.85-3.41-2.1-6.87,1.24-9.75,3.66-1.11,6.17,1.57,8.89,3,3.55,1.87,6.6,2.19,10.09.02,3.05-1.9,6.42-3.27,9.62-4.92,3.42-1.59,6.71-3.5,10.2-4.91,2.86-1.16,3.5-2.72,2.08-5.31Z"/>
    <path class="cls-13" d="m86.85,119.21c25.27.02,50.54.04,75.81.05-1.01,1.6-2.63,1.11-4.05,1.11-23.66.03-47.31.02-70.97,0-1.29,0-2.68.32-3.72-.83.98-.11,1.95-.23,2.93-.34Z"/>
    <path class="cls-14" d="m135.02,92.73c-4.54,2.3-9.15,4.48-13.6,6.95-1.63.91-2.8.35-4.11-.28-3.85-1.86-7.68-3.75-11.51-5.63-5.69-2.9-11.39-5.8-17.06-8.69.05-1.93,1.75-1.94,2.78-2.46,7.62-3.87,15.39-7.46,22.91-11.49,3.62-1.94,6.6-2.37,10.36-.16,6.48,3.8,13.31,7.03,19.99,10.49,1.45,2.67-.82,3.8-2.25,5.2-2.31,2.26-5.45,3.51-7.52,6.08Z"/>
    <path class="cls-5" d="m104.56,103.51q.35-8.69,8.22-4.79c1.72.86,3.36,1.9,5.03,2.86-.55,3.9-3.52,5.76-9.01,5.62,0,0,.05.47.05.47-1.61-1.21-3.66-1.97-4.29-4.17Z"/>
    <path class="cls-16" d="m135.02,92.73c.48-3.3,3.63-4.2,5.67-6.04,1.71-1.54,3.87-2.59,4.1-5.24.63.06,1.27.12,1.9.18,1.41.92,2.82,1.85,4.89,3.21-5.9,2.81-11.23,5.35-16.56,7.89Z"/>
    <path class="cls-15" d="m108.8,107.21c3.28-1.44,7.17-1.9,9.01-5.62,4.31.49,7.27-2.63,10.84-4.08,1.95-.8,3.82-1.79,5.79-2.72,1.51,10.47.22,12.37-9.71,14.15-5.45.98-10.81.62-15.93-1.72Z"/>
    <path class="cls-6" d="m148.83,105.48c1.7-6.49,1.63-12.52,2.32-18.52.93,5.63.6,11.33,1.54,16.95.47,2.82-2.23,1.12-3.86,1.56Z"/>
  </g>
  <text class="cls-18" transform="translate(253.86 120.73)"><tspan x="0" y="0">COURSES</tspan></text>
</svg>